<svg width="12" height="20" viewBox="0 0 12 20" fill="none" xmlns="http://www.w3.org/2000/svg">
<path d="M0.93955 19.546C0.658343 19.2647 0.50037 18.8832 0.50037 18.4855C0.50037 18.0877 0.658344 17.7063 0.939551 17.425L8.36455 10L0.939552 2.57501C0.666315 2.29211 0.515123 1.91321 0.518541 1.51991C0.521958 1.12662 0.679712 0.7504 0.957824 0.472287C1.23594 0.194177 1.61215 0.0364256 2.00545 0.0330077C2.39875 0.0295898 2.77765 0.180782 3.06055 0.454017L11.5461 8.93951C11.8273 9.2208 11.9852 9.60226 11.9852 10C11.9852 10.3977 11.8273 10.7792 11.5461 11.0605L3.06055 19.546C2.77926 19.8272 2.3978 19.9852 2.00005 19.9852C1.6023 19.9852 1.22084 19.8272 0.93955 19.546Z" fill="white"/>
</svg>
