<svg width="19" height="20" viewBox="0 0 19 20" fill="none" xmlns="http://www.w3.org/2000/svg">
<path d="M15.8333 2.875H3.16667C2.9567 2.875 2.75534 2.95841 2.60687 3.10687C2.45841 3.25534 2.375 3.4567 2.375 3.66667V16.3333C2.375 16.5433 2.45841 16.7447 2.60687 16.8931C2.75534 17.0416 2.9567 17.125 3.16667 17.125H9.98688V11.615H8.13596V9.45771H9.98688V7.87437C9.98688 6.03375 11.111 5.03071 12.7577 5.03071C13.3111 5.02912 13.8652 5.05763 14.4162 5.11542V7.03125H13.2802C12.3872 7.03125 12.213 7.45717 12.213 8.08021V9.45375H14.3482L14.0711 11.611H12.2122V17.125H15.8333C16.0433 17.125 16.2447 17.0416 16.3931 16.8931C16.5416 16.7447 16.625 16.5433 16.625 16.3333V3.66667C16.625 3.4567 16.5416 3.25534 16.3931 3.10687C16.2447 2.95841 16.0433 2.875 15.8333 2.875Z" fill="white"/>
</svg>
